<?xml version="1.0" encoding="UTF-8"?>
<svg id="Layer_1" data-name="Layer 1" xmlns="http://www.w3.org/2000/svg" viewBox="0 0 351.76 193.88">
  <g>
    <g>
      <path d="M83.36,157.6v-9.45h3.9c.52,0,.97.1,1.35.3.38.2.69.48.9.84.22.36.32.77.32,1.23,0,.49-.13.93-.38,1.31-.25.38-.61.66-1.07.82v-.22c.37.12.7.3.97.54.27.24.49.53.63.86s.22.68.22,1.07c0,.82-.26,1.48-.78,1.97s-1.25.74-2.18.74h-3.9ZM84.19,152.23h2.99c.55,0,.99-.16,1.33-.47s.5-.72.5-1.23-.16-.91-.49-1.19c-.33-.29-.77-.43-1.34-.43h-2.99v3.32ZM84.19,156.84h3.02c.67,0,1.2-.17,1.59-.52s.59-.82.59-1.41-.19-1.05-.58-1.4c-.38-.35-.9-.53-1.54-.53h-3.08v3.86Z"/>
      <path d="M94.7,157.6v-9.45h3.17c.6,0,1.13.12,1.59.35.46.24.81.57,1.07,1,.26.43.39.93.39,1.5,0,.68-.18,1.25-.55,1.73-.37.48-.86.81-1.48.98l2.23,3.88h-.98l-2.35-4.14.69.39h-2.96v3.74h-.82ZM95.53,153.1h2.37c.43,0,.81-.09,1.14-.26.33-.17.59-.42.77-.74.19-.32.28-.69.28-1.11s-.09-.79-.28-1.1c-.19-.31-.44-.55-.77-.72-.33-.17-.71-.26-1.14-.26h-2.37v4.19Z"/>
      <path d="M104.36,157.6l3.48-9.45h.85l3.48,9.45h-.89l-.86-2.41h-4.3l-.88,2.41h-.88ZM106.37,154.43h3.76l-2.03-5.65h.3l-2.03,5.65Z"/>
      <path d="M116.09,157.6v-9.45h.7l5.72,8.21h-.27v-8.21h.82v9.45h-.7l-5.75-8.26h.29v8.26h-.82Z"/>
      <path d="M127.98,157.6v-9.45h3.06c.93,0,1.74.19,2.42.58.68.38,1.21.93,1.58,1.64.37.71.56,1.54.56,2.5s-.19,1.79-.56,2.5c-.37.71-.9,1.26-1.58,1.65-.68.39-1.49.58-2.42.58h-3.06ZM128.8,156.84h2.22c.75,0,1.41-.17,1.96-.5.55-.33.98-.79,1.29-1.39.31-.6.46-1.29.46-2.09s-.15-1.5-.46-2.09c-.31-.59-.74-1.05-1.3-1.38-.56-.33-1.21-.49-1.95-.49h-2.22v7.93Z"/>
      <path d="M144.57,157.6v-9.45h.82v9.45h-.82Z"/>
      <path d="M150.31,157.6v-9.45h.7l5.72,8.21h-.27v-8.21h.82v9.45h-.7l-5.75-8.26h.29v8.26h-.82Z"/>
      <path d="M163.86,157.6v-8.69h-2.64v-.76h6.09v.76h-2.63v8.69h-.82Z"/>
      <path d="M171.24,157.6v-9.45h5.96v.76h-5.14v3.56h4.88v.76h-4.88v3.6h5.14v.76h-5.96Z"/>
      <path d="M181.56,157.6v-9.45h.82v8.69h4.25v.76h-5.07Z"/>
      <path d="M190.84,157.6v-9.45h.82v8.69h4.25v.76h-5.07Z"/>
      <path d="M200.13,157.6v-9.45h.82v9.45h-.82Z"/>
      <path d="M210.14,157.75c-.67,0-1.28-.12-1.83-.36-.55-.24-1.03-.58-1.44-1.01s-.72-.95-.95-1.54-.34-1.24-.34-1.95.11-1.36.34-1.95c.22-.59.54-1.11.95-1.55.41-.44.89-.78,1.45-1.02.55-.24,1.16-.36,1.82-.36s1.23.11,1.74.34c.51.23.94.52,1.29.88.35.36.6.72.75,1.1l-.76.35c-.25-.58-.64-1.05-1.16-1.39-.52-.34-1.14-.51-1.87-.51s-1.36.17-1.93.52c-.57.35-1.01.83-1.33,1.44-.32.61-.48,1.33-.48,2.15s.16,1.53.48,2.14.76,1.1,1.32,1.43c.56.34,1.21.51,1.94.51.65,0,1.24-.15,1.76-.44.52-.29.93-.69,1.23-1.19.3-.5.45-1.08.45-1.73v-.44l.37.39h-3.81v-.74h4.26v.71c0,.59-.11,1.14-.32,1.66-.22.51-.51.96-.89,1.34-.38.39-.83.69-1.35.9-.52.22-1.08.32-1.69.32Z"/>
      <path d="M218.91,157.6v-9.45h5.96v.76h-5.14v3.56h4.88v.76h-4.88v3.6h5.14v.76h-5.96Z"/>
      <path d="M229.22,157.6v-9.45h.7l5.72,8.21h-.27v-8.21h.82v9.45h-.7l-5.75-8.26h.29v8.26h-.82Z"/>
      <path d="M245.36,157.75c-.65,0-1.25-.12-1.8-.36s-1.03-.58-1.44-1.02c-.41-.44-.73-.96-.95-1.55s-.34-1.24-.34-1.95.11-1.35.34-1.95.54-1.11.95-1.55c.41-.44.89-.77,1.44-1.01.55-.24,1.15-.36,1.8-.36s1.21.11,1.71.34c.51.23.93.52,1.28.88.35.36.6.72.75,1.1l-.77.34c-.25-.57-.64-1.02-1.15-1.37-.51-.35-1.12-.52-1.82-.52s-1.36.17-1.92.52c-.56.35-1,.83-1.31,1.44-.31.61-.47,1.33-.47,2.14s.16,1.53.47,2.14.75,1.1,1.31,1.44c.56.34,1.2.51,1.92.51s1.31-.17,1.82-.51c.51-.34.89-.8,1.15-1.36l.77.34c-.15.37-.4.74-.75,1.09-.35.36-.77.65-1.28.88-.51.23-1.08.35-1.71.35Z"/>
      <path d="M253.6,157.6v-9.45h5.96v.76h-5.14v3.56h4.88v.76h-4.88v3.6h5.14v.76h-5.96Z"/>
    </g>
    <g>
      <path d="M54.25,134.4c-11.5,0-18.12-8.01-18.12-18.01v-4.99l10.46,2.32v2.67c0,4.3,3.48,7.55,7.67,7.55s8.13-3.25,8.13-7.55c0-11.15-13.36-14.75-19.63-22.88-3.83-5-5.58-10.22-5.58-16.61,0-9.87,6.74-18.12,17.77-18.12s16.84,8.25,16.84,18.12v5l-10.1-2.32v-2.67c0-4.3-3.02-7.67-7.09-7.67-4.3,0-6.97,3.37-6.97,7.67,0,11.73,11.97,14.87,18.82,22.42,4.07,4.53,6.27,9.88,6.39,17.08,0,9.99-7.44,18.01-18.58,18.01Z"/>
      <path d="M113.26,116.39c0,9.99-8.13,18.01-18,18.01s-18.12-8.01-18.12-18.01v-39.49c0-9.87,8.02-18.12,18.12-18.12s18,8.25,18,18.12v39.49ZM102.81,76.9c0-4.18-3.48-7.67-7.55-7.67-4.3,0-7.67,3.49-7.67,7.67v39.49c0,4.3,3.37,7.55,7.67,7.55,4.07,0,7.55-3.25,7.55-7.55v-39.49Z"/>
      <path d="M153.93,132.77h-6.97l-2.32-3.48c-1.4,1.86-4.06,3.95-9.53,3.95-8.83,0-16.84-6.62-16.84-18v-54.83h10.45v54.83c0,4.3,3.14,7.55,7.44,7.55,4.07,0,7.32-3.25,7.32-7.55v-54.83h10.46v72.37Z"/>
      <path d="M169.84,132.77h-10.45V39.61l10.45-3.48v96.65Z"/>
      <path d="M192.96,134.4c-11.5,0-18.12-8.01-18.12-18.01v-4.99l10.46,2.32v2.67c0,4.3,3.48,7.55,7.66,7.55s8.13-3.25,8.13-7.55c0-11.15-13.36-14.75-19.63-22.88-3.83-5-5.58-10.22-5.58-16.61,0-9.87,6.74-18.12,17.77-18.12s16.84,8.25,16.84,18.12v5l-10.1-2.32v-2.67c0-4.3-3.02-7.67-7.09-7.67-4.3,0-6.97,3.37-6.97,7.67,0,11.73,11.96,14.87,18.82,22.42,4.07,4.53,6.27,9.88,6.39,17.08,0,9.99-7.44,18.01-18.59,18.01Z"/>
      <path d="M226.3,132.77h-10.45V60.4h10.45v72.37Z"/>
      <path d="M265.1,132.77h-33.57v-8.13l21.95-53.21h-21.95v-11.04h33.57v8.13l-21.96,53.09h21.96v11.15Z"/>
      <path d="M305.42,116.39c0,9.99-7.67,18.01-17.66,18.01s-17.66-8.01-17.66-18.01v-39.49c0-9.87,8.02-18.12,18.12-18.12s18.01,7.44,18.01,19.63c0,19.4-7.55,25.21-25.67,34.5v3.48c0,4.3,2.9,7.55,7.2,7.55s7.2-3.25,7.2-7.55v-1.16l10.45-3.48v4.64ZM288.22,69.23c-4.3,0-7.67,3.49-7.67,7.67v24.04c12.78-6.27,15.22-12.66,15.22-21.95,0-7.32-3.48-9.76-7.55-9.76Z"/>
    </g>
    <path d="M315.24,127.45c-.24-.6-.6-1.13-1.07-1.59-.45-.47-.99-.83-1.59-1.08-.61-.25-1.27-.39-1.95-.39s-1.33.13-1.95.39c-.6.25-1.13.61-1.59,1.08-.47.45-.83.99-1.08,1.59-.25.61-.39,1.27-.39,1.95s.13,1.32.39,1.95c.25.59.61,1.12,1.08,1.59.45.45.99.81,1.59,1.07.61.27,1.27.4,1.95.4s1.33-.13,1.95-.4c.6-.25,1.13-.61,1.59-1.07.47-.47.83-1,1.07-1.59.27-.63.4-1.28.4-1.95s-.13-1.33-.4-1.95Z"/>
  </g>
  <path d="M226.04,46.28c-.25-.62-.62-1.18-1.11-1.65-.47-.49-1.03-.86-1.65-1.12-.64-.26-1.32-.4-2.02-.4s-1.39.14-2.03.4c-.62.26-1.18.64-1.65,1.12-.49.47-.86,1.03-1.12,1.65-.26.64-.4,1.32-.4,2.03s.14,1.37.4,2.02c.26.61.64,1.17,1.12,1.65.47.47,1.03.85,1.65,1.11.64.28,1.32.42,2.03.42s1.39-.14,2.02-.42c.62-.26,1.18-.64,1.65-1.11.49-.49.86-1.04,1.11-1.65.28-.65.42-1.33.42-2.02s-.14-1.39-.42-2.03Z"/>
</svg>